<svg width="209" height="206" viewBox="0 0 209 206" fill="none" xmlns="http://www.w3.org/2000/svg">
<rect width="209" height="206" rx="25" fill="#0E0E0E"/>
<path d="M107.545 149.091H76V56H108.182C117.424 56 125.364 57.8636 132 61.5909C138.667 65.2879 143.788 70.606 147.364 77.5454C150.939 84.4848 152.727 92.7879 152.727 102.455C152.727 112.152 150.924 120.485 147.318 127.455C143.742 134.424 138.576 139.773 131.818 143.5C125.091 147.227 117 149.091 107.545 149.091ZM92.8637 134.5H106.727C113.212 134.5 118.621 133.318 122.955 130.955C127.288 128.561 130.545 125 132.727 120.273C134.909 115.515 136 109.576 136 102.455C136 95.3333 134.909 89.4242 132.727 84.7273C130.545 80 127.318 76.4697 123.045 74.1364C118.803 71.7727 113.53 70.5909 107.227 70.5909H92.8637V134.5Z" fill="black"/>
<path d="M56 60C56 57.7909 57.7909 56 60 56H68V149H60C57.7909 149 56 147.209 56 145V60Z" fill="black"/>
<path d="M107.545 149.091H76V56H108.182C117.424 56 125.364 57.8636 132 61.5909C138.667 65.2879 143.788 70.606 147.364 77.5454C150.939 84.4848 152.727 92.7879 152.727 102.455C152.727 112.152 150.924 120.485 147.318 127.455C143.742 134.424 138.576 139.773 131.818 143.5C125.091 147.227 117 149.091 107.545 149.091ZM92.8637 134.5H106.727C113.212 134.5 118.621 133.318 122.955 130.955C127.288 128.561 130.545 125 132.727 120.273C134.909 115.515 136 109.576 136 102.455C136 95.3333 134.909 89.4242 132.727 84.7273C130.545 80 127.318 76.4697 123.045 74.1364C118.803 71.7727 113.53 70.5909 107.227 70.5909H92.8637V134.5Z" fill="#ECECEC"/>
<path d="M56 60C56 57.7909 57.7909 56 60 56H68V149H60C57.7909 149 56 147.209 56 145V60Z" fill="#ECECEC"/>
</svg>
