<svg width="202" height="206" viewBox="0 0 202 206" fill="none" xmlns="http://www.w3.org/2000/svg">
<rect width="202" height="206" rx="25" fill="#ECECEC"/>
<path d="M110.545 149.091H79V56H111.182C120.424 56 128.364 57.8636 135 61.5909C141.667 65.2879 146.788 70.606 150.364 77.5454C153.939 84.4848 155.727 92.7879 155.727 102.455C155.727 112.152 153.924 120.485 150.318 127.455C146.742 134.424 141.576 139.773 134.818 143.5C128.091 147.227 120 149.091 110.545 149.091ZM95.8637 134.5H109.727C116.212 134.5 121.621 133.318 125.955 130.955C130.288 128.561 133.545 125 135.727 120.273C137.909 115.515 139 109.576 139 102.455C139 95.3333 137.909 89.4242 135.727 84.7273C133.545 80 130.318 76.4697 126.045 74.1364C121.803 71.7727 116.53 70.5909 110.227 70.5909H95.8637V134.5Z" fill="#0E0E0E"/>
<path d="M59 60C59 57.7909 60.7909 56 63 56H71V149H63C60.7909 149 59 147.209 59 145V60Z" fill="#0E0E0E"/>
</svg>
